<svg id="SvgjsSvg1001" width="256" height="256" xmlns="http://www.w3.org/2000/svg" version="1.1"
  xmlns:xlink="http://www.w3.org/1999/xlink" xmlns:svgjs="http://svgjs.com/svgjs">
  <defs id="SvgjsDefs1002"></defs>
  <g id="SvgjsG1008"><svg xmlns="http://www.w3.org/2000/svg" viewBox="0 0 30 30" width="256" height="256">
      <path
        d="M24.364.635a5 5 0 0 1 4.996 4.783l.004.217v13.648a5 5 0 0 1-4.783 4.995l-.217.005h-4.43a1 1 0 0 1-.116-1.994l.117-.006h4.43a3 3 0 0 0 2.994-2.824l.005-.176V5.635a3 3 0 0 0-2.823-2.995l-.177-.005h-18.7a3 3 0 0 0-2.996 2.823l-.005.177v13.648a3 3 0 0 0 2.824 2.994l.176.006H7.45a1 1 0 0 1 .85.472c.09.129.15.28.17.444l.008.125v3.115l7.436-5.567a1 1 0 0 1 1.295 1.52l-.096.08-9.036 6.765a1 1 0 0 1-1.593-.69l-.006-.11v-4.155h-.815A5 5 0 0 1 .668 19.5l-.005-.216V5.635A5 5 0 0 1 5.446.639l.217-.004h18.701ZM15 6.135a1 1 0 0 1 .993.883l.007.117v10a1 1 0 0 1-1.993.116L14 17.135v-10a1 1 0 0 1 1-1Zm-4.995 3.027a1 1 0 0 1 .993.883l.007.117v4.576a1 1 0 0 1-1.993.116l-.007-.116v-4.576a1 1 0 0 1 1-1Zm9.944 0a1 1 0 0 1 .993.883l.007.117v4.576a1 1 0 0 1-1.993.116l-.007-.116v-4.576a1 1 0 0 1 1-1Z"
        fill="#6366f1" class="color000 svgShape"></path>
    </svg></g>
</svg>