<svg xmlns="http://www.w3.org/2000/svg" xmlns:xlink="http://www.w3.org/1999/xlink" width="400" zoomAndPan="magnify" viewBox="0 0 300 259.499997" height="346" preserveAspectRatio="xMidYMid meet" version="1.0"><defs><clipPath id="9bbf6a75a6"><path d="M 155 0.1875 L 299.710938 0.1875 L 299.710938 118 L 155 118 Z M 155 0.1875 " clip-rule="nonzero"/></clipPath><clipPath id="5e1ee12d7f"><path d="M 0.289062 127 L 25 127 L 25 184 L 0.289062 184 Z M 0.289062 127 " clip-rule="nonzero"/></clipPath><clipPath id="64f4ef3152"><path d="M 106.75 236.066406 L 186.59375 236.066406 L 186.59375 259 L 106.75 259 Z M 106.75 236.066406 " clip-rule="nonzero"/></clipPath><clipPath id="662c706d14"><path d="M 155 0.1875 L 299.710938 0.1875 L 299.710938 118 L 155 118 Z M 155 0.1875 " clip-rule="nonzero"/></clipPath><clipPath id="de050f9806"><path d="M 0.289062 127 L 25 127 L 25 184 L 0.289062 184 Z M 0.289062 127 " clip-rule="nonzero"/></clipPath><clipPath id="407ca5beb1"><path d="M 106.75 236.066406 L 186.59375 236.066406 L 186.59375 259 L 106.75 259 Z M 106.75 236.066406 " clip-rule="nonzero"/></clipPath></defs><path fill="#ff914d" d="M 146.761719 55.882812 C 133.703125 55.882812 122.46875 63.5625 117.101562 74.617188 L 176.316406 74.617188 C 170.953125 63.5625 159.71875 55.882812 146.761719 55.882812 " fill-opacity="1" fill-rule="nonzero"/><path fill="#ff914d" d="M 269.339844 97.652344 L 269.339844 124.683594 L 276.730469 124.683594 L 276.730469 97.652344 C 275.515625 98.0625 274.300781 98.265625 272.984375 98.265625 C 271.667969 98.265625 270.453125 98.0625 269.339844 97.652344 " fill-opacity="1" fill-rule="nonzero"/><path fill="#ff914d" d="M 192.714844 142.292969 C 200.105469 142.292969 205.976562 148.230469 205.976562 155.601562 C 205.976562 163.078125 200.105469 169.015625 192.714844 169.015625 C 185.429688 169.015625 179.558594 163.078125 179.558594 155.601562 C 179.558594 148.230469 185.429688 142.292969 192.714844 142.292969 Z M 167.105469 155.601562 C 167.105469 170.039062 178.542969 181.609375 192.714844 181.609375 C 206.988281 181.609375 218.425781 170.039062 218.425781 155.601562 C 218.425781 141.269531 206.988281 129.699219 192.714844 129.699219 C 178.542969 129.699219 167.105469 141.269531 167.105469 155.601562 " fill-opacity="1" fill-rule="nonzero"/><g clip-path="url(#9bbf6a75a6)"><path fill="#ff914d" d="M 187.855469 65.710938 L 209.621094 65.710938 C 207.695312 84.546875 200.105469 101.339844 191.199219 117.621094 C 205.265625 108.710938 224.296875 95.503906 237.355469 65.710938 L 267.3125 65.710938 C 285.132812 65.710938 299.707031 50.96875 299.707031 32.949219 C 299.707031 14.929688 285.132812 0.183594 267.3125 0.183594 L 187.855469 0.183594 C 170.042969 0.183594 155.464844 14.929688 155.464844 32.949219 C 155.464844 50.96875 170.042969 65.710938 187.855469 65.710938 " fill-opacity="1" fill-rule="nonzero"/></g><path fill="#ff914d" d="M 284.828125 83.21875 C 284.828125 76.667969 279.460938 71.339844 272.984375 71.339844 C 266.507812 71.339844 261.242188 76.667969 261.242188 83.21875 C 261.242188 89.875 266.507812 95.195312 272.984375 95.195312 C 279.460938 95.195312 284.828125 89.875 284.828125 83.21875 " fill-opacity="1" fill-rule="nonzero"/><g clip-path="url(#5e1ee12d7f)"><path fill="#ff914d" d="M 24.890625 127.753906 L 11.933594 127.753906 C 5.453125 127.753906 0.292969 133.078125 0.292969 139.53125 L 0.292969 171.777344 C 0.292969 178.230469 5.453125 183.554688 11.933594 183.554688 L 24.890625 183.554688 C 21.550781 174.851562 19.730469 165.429688 19.730469 155.601562 C 19.730469 145.875 21.550781 136.457031 24.890625 127.753906 " fill-opacity="1" fill-rule="nonzero"/></g><path fill="#ff914d" d="M 20.4375 95.195312 C 26.914062 95.195312 32.179688 89.875 32.179688 83.21875 C 32.179688 76.667969 26.914062 71.339844 20.4375 71.339844 C 13.960938 71.339844 8.695312 76.667969 8.695312 83.21875 C 8.695312 89.875 13.960938 95.195312 20.4375 95.195312 " fill-opacity="1" fill-rule="nonzero"/><path fill="#ff914d" d="M 279.664062 127.753906 L 268.53125 127.753906 C 271.871094 136.457031 273.691406 145.875 273.691406 155.601562 C 273.691406 165.429688 271.871094 174.851562 268.53125 183.554688 L 279.664062 183.554688 C 286.042969 183.554688 291.304688 178.230469 291.304688 171.777344 L 291.304688 139.53125 C 291.304688 133.078125 286.042969 127.753906 279.664062 127.753906 " fill-opacity="1" fill-rule="nonzero"/><g clip-path="url(#64f4ef3152)"><path fill="#ff914d" d="M 106.980469 259.214844 L 186.4375 259.214844 L 186.4375 236.691406 L 106.980469 236.691406 L 106.980469 259.214844 " fill-opacity="1" fill-rule="nonzero"/></g><path fill="#ff914d" d="M 229.359375 86.699219 C 224.398438 93.96875 218.730469 100.214844 212.148438 106.050781 C 231.890625 113.625 246.058594 133.078125 246.058594 155.601562 C 246.058594 184.882812 222.476562 208.738281 193.523438 208.738281 L 99.894531 208.738281 C 70.945312 208.738281 47.359375 184.882812 47.359375 155.601562 C 47.359375 126.425781 70.945312 102.566406 99.894531 102.566406 L 193.523438 102.566406 C 194.234375 102.566406 194.84375 102.566406 195.449219 102.566406 C 199.089844 94.789062 202.230469 86.800781 204.253906 78.40625 C 200.8125 77.894531 197.171875 77.6875 193.523438 77.6875 L 99.894531 77.6875 C 57.484375 77.6875 22.765625 112.707031 22.765625 155.601562 C 22.765625 198.5 57.484375 233.621094 99.894531 233.621094 L 193.523438 233.621094 C 235.9375 233.621094 270.65625 198.5 270.65625 155.601562 C 270.65625 125.808594 253.855469 99.804688 229.359375 86.699219 " fill-opacity="1" fill-rule="nonzero"/><path fill="#ff914d" d="M 16.792969 97.652344 L 16.792969 124.683594 L 24.078125 124.683594 L 24.078125 97.652344 C 22.96875 98.0625 21.75 98.265625 20.4375 98.265625 C 19.121094 98.265625 17.90625 98.0625 16.792969 97.652344 " fill-opacity="1" fill-rule="nonzero"/><path fill="#ff914d" d="M 113.863281 155.601562 C 113.863281 163.078125 107.992188 169.015625 100.707031 169.015625 C 93.316406 169.015625 87.445312 163.078125 87.445312 155.601562 C 87.445312 148.230469 93.316406 142.292969 100.707031 142.292969 C 107.992188 142.292969 113.863281 148.230469 113.863281 155.601562 Z M 74.996094 155.601562 C 74.996094 170.039062 86.433594 181.609375 100.707031 181.609375 C 114.875 181.609375 126.414062 170.039062 126.414062 155.601562 C 126.414062 141.269531 114.875 129.699219 100.707031 129.699219 C 86.433594 129.699219 74.996094 141.269531 74.996094 155.601562 " fill-opacity="1" fill-rule="nonzero"/><path fill="#ff914d" d="M 146.761719 55.882812 C 133.703125 55.882812 122.46875 63.5625 117.101562 74.617188 L 176.316406 74.617188 C 170.953125 63.5625 159.71875 55.882812 146.761719 55.882812 " fill-opacity="1" fill-rule="nonzero"/><path fill="#ff914d" d="M 269.339844 97.652344 L 269.339844 124.683594 L 276.730469 124.683594 L 276.730469 97.652344 C 275.515625 98.0625 274.300781 98.265625 272.984375 98.265625 C 271.667969 98.265625 270.453125 98.0625 269.339844 97.652344 " fill-opacity="1" fill-rule="nonzero"/><path fill="#ff914d" d="M 192.714844 142.292969 C 200.105469 142.292969 205.976562 148.230469 205.976562 155.601562 C 205.976562 163.078125 200.105469 169.015625 192.714844 169.015625 C 185.429688 169.015625 179.558594 163.078125 179.558594 155.601562 C 179.558594 148.230469 185.429688 142.292969 192.714844 142.292969 Z M 167.105469 155.601562 C 167.105469 170.039062 178.542969 181.609375 192.714844 181.609375 C 206.988281 181.609375 218.425781 170.039062 218.425781 155.601562 C 218.425781 141.269531 206.988281 129.699219 192.714844 129.699219 C 178.542969 129.699219 167.105469 141.269531 167.105469 155.601562 " fill-opacity="1" fill-rule="nonzero"/><g clip-path="url(#662c706d14)"><path fill="#ff914d" d="M 187.855469 65.710938 L 209.621094 65.710938 C 207.695312 84.546875 200.105469 101.339844 191.199219 117.621094 C 205.265625 108.710938 224.296875 95.503906 237.355469 65.710938 L 267.3125 65.710938 C 285.132812 65.710938 299.707031 50.96875 299.707031 32.949219 C 299.707031 14.929688 285.132812 0.183594 267.3125 0.183594 L 187.855469 0.183594 C 170.042969 0.183594 155.464844 14.929688 155.464844 32.949219 C 155.464844 50.96875 170.042969 65.710938 187.855469 65.710938 " fill-opacity="1" fill-rule="nonzero"/></g><path fill="#ff914d" d="M 284.828125 83.21875 C 284.828125 76.667969 279.460938 71.339844 272.984375 71.339844 C 266.507812 71.339844 261.242188 76.667969 261.242188 83.21875 C 261.242188 89.875 266.507812 95.195312 272.984375 95.195312 C 279.460938 95.195312 284.828125 89.875 284.828125 83.21875 " fill-opacity="1" fill-rule="nonzero"/><g clip-path="url(#de050f9806)"><path fill="#ff914d" d="M 24.890625 127.753906 L 11.933594 127.753906 C 5.453125 127.753906 0.292969 133.078125 0.292969 139.53125 L 0.292969 171.777344 C 0.292969 178.230469 5.453125 183.554688 11.933594 183.554688 L 24.890625 183.554688 C 21.550781 174.851562 19.730469 165.429688 19.730469 155.601562 C 19.730469 145.875 21.550781 136.457031 24.890625 127.753906 " fill-opacity="1" fill-rule="nonzero"/></g><path fill="#ff914d" d="M 20.4375 95.195312 C 26.914062 95.195312 32.179688 89.875 32.179688 83.21875 C 32.179688 76.667969 26.914062 71.339844 20.4375 71.339844 C 13.960938 71.339844 8.695312 76.667969 8.695312 83.21875 C 8.695312 89.875 13.960938 95.195312 20.4375 95.195312 " fill-opacity="1" fill-rule="nonzero"/><path fill="#ff914d" d="M 279.664062 127.753906 L 268.53125 127.753906 C 271.871094 136.457031 273.691406 145.875 273.691406 155.601562 C 273.691406 165.429688 271.871094 174.851562 268.53125 183.554688 L 279.664062 183.554688 C 286.042969 183.554688 291.304688 178.230469 291.304688 171.777344 L 291.304688 139.53125 C 291.304688 133.078125 286.042969 127.753906 279.664062 127.753906 " fill-opacity="1" fill-rule="nonzero"/><g clip-path="url(#407ca5beb1)"><path fill="#ff914d" d="M 106.980469 259.214844 L 186.4375 259.214844 L 186.4375 236.691406 L 106.980469 236.691406 L 106.980469 259.214844 " fill-opacity="1" fill-rule="nonzero"/></g><path fill="#ff914d" d="M 229.359375 86.699219 C 224.398438 93.96875 218.730469 100.214844 212.148438 106.050781 C 231.890625 113.625 246.058594 133.078125 246.058594 155.601562 C 246.058594 184.882812 222.476562 208.738281 193.523438 208.738281 L 99.894531 208.738281 C 70.945312 208.738281 47.359375 184.882812 47.359375 155.601562 C 47.359375 126.425781 70.945312 102.566406 99.894531 102.566406 L 193.523438 102.566406 C 194.234375 102.566406 194.84375 102.566406 195.449219 102.566406 C 199.089844 94.789062 202.230469 86.800781 204.253906 78.40625 C 200.8125 77.894531 197.171875 77.6875 193.523438 77.6875 L 99.894531 77.6875 C 57.484375 77.6875 22.765625 112.707031 22.765625 155.601562 C 22.765625 198.5 57.484375 233.621094 99.894531 233.621094 L 193.523438 233.621094 C 235.9375 233.621094 270.65625 198.5 270.65625 155.601562 C 270.65625 125.808594 253.855469 99.804688 229.359375 86.699219 " fill-opacity="1" fill-rule="nonzero"/><path fill="#ff914d" d="M 16.792969 97.652344 L 16.792969 124.683594 L 24.078125 124.683594 L 24.078125 97.652344 C 22.96875 98.0625 21.75 98.265625 20.4375 98.265625 C 19.121094 98.265625 17.90625 98.0625 16.792969 97.652344 " fill-opacity="1" fill-rule="nonzero"/><path fill="#ff914d" d="M 113.863281 155.601562 C 113.863281 163.078125 107.992188 169.015625 100.707031 169.015625 C 93.316406 169.015625 87.445312 163.078125 87.445312 155.601562 C 87.445312 148.230469 93.316406 142.292969 100.707031 142.292969 C 107.992188 142.292969 113.863281 148.230469 113.863281 155.601562 Z M 74.996094 155.601562 C 74.996094 170.039062 86.433594 181.609375 100.707031 181.609375 C 114.875 181.609375 126.414062 170.039062 126.414062 155.601562 C 126.414062 141.269531 114.875 129.699219 100.707031 129.699219 C 86.433594 129.699219 74.996094 141.269531 74.996094 155.601562 " fill-opacity="1" fill-rule="nonzero"/></svg>